<svg xmlns="http://www.w3.org/2000/svg" xmlns:xlink="http://www.w3.org/1999/xlink" width="597.997" height="459.073" viewBox="0 0 597.997 459.073" opacity="0.1">
  <defs>
    <linearGradient id="linear-gradient" x1="1.115" y1="1.126" x2="1.56" y2="1.609" gradientUnits="objectBoundingBox">
      <stop offset="0" stop-color="#d9ceca"/>
      <stop offset="1" stop-color="#fff"/>
    </linearGradient>
    <linearGradient id="linear-gradient-2" x1="80.862" y1="131.997" x2="82.266" y2="133.517" xlink:href="#linear-gradient"/>
    <linearGradient id="linear-gradient-3" x1="64.901" y1="120.526" x2="66.191" y2="121.778" xlink:href="#linear-gradient"/>
    <linearGradient id="linear-gradient-4" x1="1.203" y1="1.195" x2="1.611" y2="1.587" xlink:href="#linear-gradient"/>
    <linearGradient id="linear-gradient-5" x1="0.004" y1="1.958" x2="0.654" y2="2.424" xlink:href="#linear-gradient"/>
  </defs>
  <g id="矢量智能对象" transform="matrix(-1, 0, 0, -1, 667.283, 551.945)" opacity="0.8">
    <g id="组_1" data-name="组 1">
      <path id="路径_1" data-name="路径 1" d="M667.283,275.305,517.308,426.974,405.161,313.549,576.226,183.22Z" fill="url(#linear-gradient)" style="mix-blend-mode: multiply;isolation: isolate"/>
      <path id="路径_2" data-name="路径 2" d="M200.35,388.7,123.7,466.219l-54.248-54.87,86.644-67.413Z" fill="url(#linear-gradient-2)" style="mix-blend-mode: multiply;isolation: isolate"/>
      <path id="路径_3" data-name="路径 3" d="M547.847,425.624l-50.269,50.842-45.688-46.211,47.4-53.745Z" fill="url(#linear-gradient-3)" style="mix-blend-mode: multiply;isolation: isolate"/>
      <path id="路径_4" data-name="路径 4" d="M475.629,194.021,325.657,345.689l-81.644-82.576L384.575,101.939Z" fill="url(#linear-gradient-4)" style="mix-blend-mode: multiply;isolation: isolate"/>
      <path id="路径_5" data-name="路径 5" d="M317.6,214.121,183.957,349.273l-40-40.464L208.877,104.17Z" fill="url(#linear-gradient-5)" style="mix-blend-mode: multiply;isolation: isolate"/>
    </g>
    <g id="组_2" data-name="组 2">
      <ellipse id="椭圆_1" data-name="椭圆 1" cx="35.671" cy="36.075" rx="35.671" ry="36.075" transform="translate(439.547 367.014)" fill="#e2dcd0"/>
      <path id="路径_6" data-name="路径 6" d="M458.272,420.375l18.577,18.788a35.3,35.3,0,0,0,23.668-10.489,36.121,36.121,0,0,0,10.372-23.931l-18.583-18.788Z" fill="#ccc6b8"/>
      <path id="路径_7" data-name="路径 7" d="M499.283,403.087a24.069,24.069,0,1,1-24.065-24.338A24.2,24.2,0,0,1,499.283,403.087Z" fill="#fff"/>
      <path id="路径_8" data-name="路径 8" d="M494.129,403.087a18.912,18.912,0,1,1-18.911-19.125A19.021,19.021,0,0,1,494.129,403.087Z" fill="#4d4d4d"/>
      <path id="路径_9" data-name="路径 9" d="M461.9,403.087a19.007,19.007,0,0,1,16.119-18.841,18.537,18.537,0,0,0-2.8-.284,19.129,19.129,0,0,0,0,38.256,18.539,18.539,0,0,0,2.8-.289A19,19,0,0,1,461.9,403.087Z" fill="#2b2b2b"/>
      <path id="路径_10" data-name="路径 10" d="M505.518,399.83h-7.31v6.52h7.31a3.26,3.26,0,0,0,0-6.52Z" fill="#fff"/>
    </g>
    <g id="组_3" data-name="组 3">
      <path id="路径_11" data-name="路径 11" d="M197.9,404.443a6.906,6.906,0,0,1-2.913-9.247l15.06-29.5,42.219,22.04-15.06,29.5a6.75,6.75,0,0,1-9.143,2.952Z" fill="#fff"/>
      <rect id="矩形_1" data-name="矩形 1" width="24.842" height="30.317" transform="translate(189.601 425.078) rotate(-62.686)" fill="#fff"/>
      <rect id="矩形_2" data-name="矩形 2" width="10.462" height="37.758" transform="matrix(0.459, -0.889, 0.889, 0.459, 187.244, 421.584)" fill="#4d4d4d"/>
      <path id="路径_12" data-name="路径 12" d="M166.753,551.945l57.636-112.413L184.43,418.668,118.111,547.634Z" fill="#e2dcd0"/>
      <path id="路径_13" data-name="路径 13" d="M185.582,434.5a2.969,2.969,0,0,1-1.25-3.975,2.9,2.9,0,0,1,3.925-1.27,2.974,2.974,0,0,1,1.255,3.975A2.9,2.9,0,0,1,185.582,434.5Z" fill="#4d4d4d"/>
      <path id="路径_14" data-name="路径 14" d="M180.714,444.033a2.965,2.965,0,0,1-1.25-3.97,2.909,2.909,0,0,1,3.931-1.275,2.965,2.965,0,0,1,1.25,3.975A2.905,2.905,0,0,1,180.714,444.033Z" fill="#4d4d4d"/>
      <path id="路径_15" data-name="路径 15" d="M186.128,374.421l7.172-14.047a5.059,5.059,0,0,1,6.855-2.218,5.187,5.187,0,0,1,2.193,6.943l-7.172,14.047a5.068,5.068,0,0,1-6.865,2.207A5.17,5.17,0,0,1,186.128,374.421Z" fill="#fff"/>
      <path id="路径_16" data-name="路径 16" d="M192.787,399.878l-6.865-21.766a5.147,5.147,0,0,1,3.3-6.466,5.066,5.066,0,0,1,6.4,3.338l6.87,21.772a5.177,5.177,0,0,1-3.3,6.472A5.092,5.092,0,0,1,192.787,399.878Z" fill="#fff"/>
    </g>
    <g id="组_8" data-name="组 8">
      <rect id="矩形_3" data-name="矩形 3" width="170.657" height="126.494" transform="translate(245.816 262.891) rotate(-85.046)" fill="#fff"/>
      <g id="组_4" data-name="组 4">
        <rect id="矩形_4" data-name="矩形 4" width="20.863" height="36.091" transform="translate(275.644 157.512) rotate(-85.044)" fill="none" stroke="#4d4d4d" stroke-miterlimit="10" stroke-width="1.332"/>
        <line id="直线_1" data-name="直线 1" x2="33.752" y2="24.139" transform="translate(277.446 136.491)" fill="none" stroke="#4d4d4d" stroke-miterlimit="10" stroke-width="1.332"/>
        <line id="直线_2" data-name="直线 2" y1="17.903" x2="37.355" transform="translate(275.643 139.61)" fill="none" stroke="#4d4d4d" stroke-miterlimit="10" stroke-width="1.332"/>
      </g>
      <g id="组_5" data-name="组 5">
        <rect id="矩形_5" data-name="矩形 5" width="20.863" height="36.081" transform="translate(323.238 161.684) rotate(-85.047)" fill="none" stroke="#4d4d4d" stroke-miterlimit="10" stroke-width="1.332"/>
        <line id="直线_3" data-name="直线 3" x2="33.741" y2="24.136" transform="translate(325.039 140.663)" fill="none" stroke="#4d4d4d" stroke-miterlimit="10" stroke-width="1.332"/>
        <line id="直线_4" data-name="直线 4" y1="17.905" x2="37.347" transform="translate(323.238 143.779)" fill="none" stroke="#4d4d4d" stroke-miterlimit="10" stroke-width="1.332"/>
      </g>
      <g id="组_6" data-name="组 6">
        <rect id="矩形_6" data-name="矩形 6" width="20.862" height="36.091" transform="matrix(0.086, -0.996, 0.996, 0.086, 270.48, 217.762)" fill="none" stroke="#4d4d4d" stroke-miterlimit="10" stroke-width="1.332"/>
        <line id="直线_5" data-name="直线 5" x2="33.751" y2="24.139" transform="translate(272.284 196.744)" fill="none" stroke="#4d4d4d" stroke-miterlimit="10" stroke-width="1.332"/>
        <line id="直线_6" data-name="直线 6" y1="17.9" x2="37.355" transform="translate(270.481 199.862)" fill="none" stroke="#4d4d4d" stroke-miterlimit="10" stroke-width="1.332"/>
      </g>
      <g id="组_7" data-name="组 7">
        <rect id="矩形_7" data-name="矩形 7" width="20.862" height="36.084" transform="translate(318.07 221.937) rotate(-85.042)" fill="none" stroke="#4d4d4d" stroke-miterlimit="10" stroke-width="1.332"/>
        <line id="直线_7" data-name="直线 7" x2="33.744" y2="24.136" transform="translate(319.873 200.919)" fill="none" stroke="#4d4d4d" stroke-miterlimit="10" stroke-width="1.332"/>
        <line id="直线_8" data-name="直线 8" y1="17.903" x2="37.35" transform="translate(318.07 204.034)" fill="none" stroke="#4d4d4d" stroke-miterlimit="10" stroke-width="1.332"/>
      </g>
      <rect id="矩形_8" data-name="矩形 8" width="6.725" height="50.543" transform="matrix(0.086, -0.996, 0.996, 0.086, 296.025, 116.849)" fill="#8c8c8c"/>
      <rect id="矩形_9" data-name="矩形 9" width="3.132" height="86.91" transform="translate(277.424 123.323) rotate(-85.043)" fill="#bcbcbc"/>
      <rect id="矩形_10" data-name="矩形 10" width="3.128" height="37.829" transform="translate(273.672 167.107) rotate(-85.042)" fill="#bcbcbc"/>
      <rect id="矩形_11" data-name="矩形 11" width="3.133" height="37.832" transform="translate(273.017 174.711) rotate(-85.045)" fill="#bcbcbc"/>
      <rect id="矩形_12" data-name="矩形 12" width="3.124" height="37.834" transform="translate(272.366 182.31) rotate(-85.047)" fill="#bcbcbc"/>
      <rect id="矩形_13" data-name="矩形 13" width="3.124" height="37.836" transform="translate(271.713 189.914) rotate(-85.046)" fill="#bcbcbc"/>
      <rect id="矩形_14" data-name="矩形 14" width="3.13" height="37.83" transform="matrix(0.086, -0.996, 0.996, 0.086, 321.688, 171.318)" fill="#bcbcbc"/>
      <rect id="矩形_15" data-name="矩形 15" width="3.127" height="37.83" transform="translate(321.037 178.92) rotate(-85.045)" fill="#bcbcbc"/>
      <rect id="矩形_16" data-name="矩形 16" width="3.124" height="37.832" transform="translate(320.385 186.519) rotate(-85.041)" fill="#bcbcbc"/>
      <rect id="矩形_17" data-name="矩形 17" width="3.127" height="37.83" transform="matrix(0.086, -0.996, 0.996, 0.086, 319.733, 194.123)" fill="#bcbcbc"/>
      <rect id="矩形_18" data-name="矩形 18" width="3.126" height="37.831" transform="translate(268.458 227.925) rotate(-85.041)" fill="#bcbcbc"/>
      <rect id="矩形_19" data-name="矩形 19" width="3.127" height="37.832" transform="translate(267.806 235.529) rotate(-85.041)" fill="#bcbcbc"/>
      <rect id="矩形_20" data-name="矩形 20" width="3.125" height="37.833" transform="matrix(0.086, -0.996, 0.996, 0.086, 267.153, 243.131)" fill="#bcbcbc"/>
      <rect id="矩形_21" data-name="矩形 21" width="3.131" height="37.833" transform="translate(266.501 250.737) rotate(-85.05)" fill="#bcbcbc"/>
      <rect id="矩形_22" data-name="矩形 22" width="3.124" height="37.829" transform="translate(316.475 232.136) rotate(-85.049)" fill="#bcbcbc"/>
      <rect id="矩形_23" data-name="矩形 23" width="3.13" height="37.83" transform="translate(315.822 239.741) rotate(-85.042)" fill="#bcbcbc"/>
      <rect id="矩形_24" data-name="矩形 24" width="3.127" height="37.828" transform="translate(315.173 247.339) rotate(-85.041)" fill="#bcbcbc"/>
      <rect id="矩形_25" data-name="矩形 25" width="3.125" height="37.829" transform="translate(314.523 254.944) rotate(-85.046)" fill="#bcbcbc"/>
    </g>
    <rect id="矩形_26" data-name="矩形 26" width="170.617" height="126.275" transform="matrix(0.269, -0.963, 0.963, 0.269, 409.344, 314.964)" fill="#e2dcd0"/>
    <rect id="矩形_27" data-name="矩形 27" width="124.856" height="172.549" transform="translate(85.856 150.636) rotate(-22.959)" fill="#e2dcd0"/>
    <g id="组_15" data-name="组 15">
      <rect id="矩形_28" data-name="矩形 28" width="170.615" height="126.274" transform="matrix(0.34, -0.941, 0.941, 0.34, 404.92, 309.694)" fill="#fff"/>
      <rect id="矩形_29" data-name="矩形 29" width="7.56" height="51.174" transform="translate(470.51 170.728) rotate(-70.15)" fill="#8c8c8c"/>
      <rect id="矩形_30" data-name="矩形 30" width="7.557" height="63.726" transform="translate(441.081 253.165) rotate(-70.149)" fill="#8c8c8c"/>
      <rect id="矩形_31" data-name="矩形 31" width="3.779" height="95.876" transform="matrix(0.34, -0.941, 0.941, 0.34, 467.399, 179.442)" fill="#bcbcbc"/>
      <rect id="矩形_32" data-name="矩形 32" width="3.779" height="95.881" transform="translate(465.225 185.527) rotate(-70.148)" fill="#bcbcbc"/>
      <g id="组_9" data-name="组 9">
        <rect id="矩形_33" data-name="矩形 33" width="2.394" height="47.846" transform="translate(502.29 221.438) rotate(-70.148)" fill="#bcbcbc"/>
        <rect id="矩形_34" data-name="矩形 34" width="2.394" height="47.843" transform="matrix(0.34, -0.941, 0.941, 0.34, 500.914, 225.293)" fill="#bcbcbc"/>
        <rect id="矩形_35" data-name="矩形 35" width="2.393" height="47.844" transform="translate(499.532 229.167) rotate(-70.148)" fill="#bcbcbc"/>
        <rect id="矩形_36" data-name="矩形 36" width="2.395" height="47.843" transform="translate(498.085 233.222) rotate(-70.145)" fill="#bcbcbc"/>
        <rect id="矩形_37" data-name="矩形 37" width="3.781" height="27.25" transform="translate(503.892 215.803) rotate(-70.152)" fill="#8c8c8c"/>
      </g>
      <g id="组_10" data-name="组 10">
        <rect id="矩形_38" data-name="矩形 38" width="2.392" height="95.294" transform="translate(449.864 228.561) rotate(-70.148)" fill="#bcbcbc"/>
        <rect id="矩形_39" data-name="矩形 39" width="2.395" height="95.297" transform="matrix(0.34, -0.941, 0.941, 0.34, 448.485, 232.419)" fill="#bcbcbc"/>
        <rect id="矩形_40" data-name="矩形 40" width="2.392" height="95.292" transform="translate(451.147 224.969) rotate(-70.15)" fill="#bcbcbc"/>
        <rect id="矩形_41" data-name="矩形 41" width="2.393" height="95.294" transform="matrix(0.34, -0.941, 0.941, 0.34, 447.104, 236.293)" fill="#bcbcbc"/>
        <rect id="矩形_42" data-name="矩形 42" width="2.394" height="95.295" transform="translate(445.656 240.348) rotate(-70.147)" fill="#bcbcbc"/>
      </g>
      <g id="组_11" data-name="组 11">
        <rect id="矩形_43" data-name="矩形 43" width="2.391" height="95.296" transform="matrix(0.34, -0.941, 0.941, 0.34, 427.05, 292.468)" fill="#bcbcbc"/>
        <rect id="矩形_44" data-name="矩形 44" width="2.394" height="95.295" transform="translate(425.673 296.324) rotate(-70.151)" fill="#bcbcbc"/>
        <rect id="矩形_45" data-name="矩形 45" width="2.393" height="95.295" transform="translate(428.336 288.869) rotate(-70.147)" fill="#bcbcbc"/>
        <rect id="矩形_46" data-name="矩形 46" width="2.395" height="95.295" transform="matrix(0.34, -0.941, 0.941, 0.34, 424.292, 300.195)" fill="#bcbcbc"/>
        <rect id="矩形_47" data-name="矩形 47" width="2.397" height="75.393" transform="matrix(0.34, -0.941, 0.941, 0.34, 422.841, 304.254)" fill="#bcbcbc"/>
      </g>
      <g id="组_12" data-name="组 12">
        <rect id="矩形_48" data-name="矩形 48" width="2.393" height="47.843" transform="translate(479.476 285.346) rotate(-70.153)" fill="#bcbcbc"/>
        <rect id="矩形_49" data-name="矩形 49" width="2.394" height="47.844" transform="translate(478.101 289.2) rotate(-70.151)" fill="#bcbcbc"/>
        <rect id="矩形_50" data-name="矩形 50" width="2.397" height="47.845" transform="translate(476.718 293.07) rotate(-70.146)" fill="#bcbcbc"/>
        <rect id="矩形_51" data-name="矩形 51" width="2.396" height="47.845" transform="translate(475.268 297.129) rotate(-70.149)" fill="#bcbcbc"/>
        <rect id="矩形_52" data-name="矩形 52" width="3.78" height="27.256" transform="matrix(0.34, -0.941, 0.941, 0.34, 481.077, 279.705)" fill="#8c8c8c"/>
      </g>
      <g id="组_13" data-name="组 13">
        <path id="路径_17" data-name="路径 17" d="M486.125,204.565a12.233,12.233,0,0,0-4.6-3.021l-4.233,11.85Z" fill="#4d4d4d"/>
        <path id="路径_18" data-name="路径 18" d="M489.017,217.669a12.667,12.667,0,0,0-2.892-13.1l-8.83,8.829,8.979,8.705A12.487,12.487,0,0,0,489.017,217.669Z" fill="#8c8c8c"/>
        <path id="路径_19" data-name="路径 19" d="M486.273,222.1l-8.979-8.705-1.473,12.4A12.347,12.347,0,0,0,486.273,222.1Z" fill="#e2dcd0"/>
        <path id="路径_20" data-name="路径 20" d="M481.527,201.544a12.418,12.418,0,0,0-15.945,7.57,12.7,12.7,0,0,0-.625,2.673l12.337,1.607Z" fill="#79c186"/>
        <path id="路径_21" data-name="路径 21" d="M477.294,213.394l-12.337-1.607a12.618,12.618,0,0,0,8.115,13.447,11.834,11.834,0,0,0,2.749.563Z" fill="#e67345"/>
      </g>
      <g id="组_14" data-name="组 14">
        <rect id="矩形_53" data-name="矩形 53" width="22.536" height="4.563" transform="matrix(0.34, -0.941, 0.941, 0.34, 456.341, 290.241)" fill="#4d4d4d"/>
        <rect id="矩形_54" data-name="矩形 54" width="16.222" height="4.558" transform="translate(450.136 287.976) rotate(-70.147)" fill="#e2dcd0"/>
        <rect id="矩形_55" data-name="矩形 55" width="19.155" height="4.564" transform="matrix(0.34, -0.941, 0.941, 0.34, 443.926, 285.71)" fill="#79c186"/>
        <rect id="矩形_56" data-name="矩形 56" width="11.495" height="4.565" transform="translate(437.845 283.487) rotate(-70.138)" fill="#e67345"/>
      </g>
    </g>
    <g id="组_17" data-name="组 17">
      <rect id="矩形_57" data-name="矩形 57" width="124.859" height="172.551" transform="translate(89.751 144.599) rotate(-18.735)" fill="#fff"/>
      <rect id="矩形_58" data-name="矩形 58" width="93.263" height="7.665" transform="matrix(0.947, -0.321, 0.321, 0.947, 108.994, 149.215)" fill="#8c8c8c"/>
      <rect id="矩形_59" data-name="矩形 59" width="40.829" height="7.662" transform="translate(133.783 223.131) rotate(-18.734)" fill="#8c8c8c"/>
      <rect id="矩形_60" data-name="矩形 60" width="40.829" height="20.703" transform="translate(141.721 246.8) rotate(-18.735)" fill="#8c8c8c"/>
      <rect id="矩形_61" data-name="矩形 61" width="60.167" height="3.052" transform="translate(112.832 160.659) rotate(-18.734)" fill="#bcbcbc"/>
      <rect id="矩形_62" data-name="矩形 62" width="60.168" height="3.05" transform="translate(114.499 165.633) rotate(-18.736)" fill="#bcbcbc"/>
      <rect id="矩形_63" data-name="矩形 63" width="93.262" height="3.053" transform="matrix(0.947, -0.321, 0.321, 0.947, 137.404, 233.928)" fill="#bcbcbc"/>
      <rect id="矩形_64" data-name="矩形 64" width="82.626" height="3.054" transform="translate(139.07 238.894) rotate(-18.733)" fill="#bcbcbc"/>
      <rect id="矩形_65" data-name="矩形 65" width="93.261" height="3.053" transform="matrix(0.947, -0.321, 0.321, 0.947, 149.621, 270.353)" fill="#bcbcbc"/>
      <rect id="矩形_66" data-name="矩形 66" width="93.262" height="3.054" transform="matrix(0.947, -0.321, 0.321, 0.947, 151.29, 275.327)" fill="#bcbcbc"/>
      <rect id="矩形_67" data-name="矩形 67" width="93.265" height="3.054" transform="translate(153.014 280.47) rotate(-18.737)" fill="#bcbcbc"/>
      <rect id="矩形_68" data-name="矩形 68" width="93.262" height="3.053" transform="matrix(0.947, -0.321, 0.321, 0.947, 154.741, 285.616)" fill="#bcbcbc"/>
      <rect id="矩形_69" data-name="矩形 69" width="93.265" height="3.054" transform="matrix(0.947, -0.321, 0.321, 0.947, 156.465, 290.763)" fill="#bcbcbc"/>
      <rect id="矩形_70" data-name="矩形 70" width="23.745" height="7.663" transform="translate(188.326 230.817) rotate(-18.743)" fill="#8c8c8c"/>
      <rect id="矩形_71" data-name="矩形 71" width="44.055" height="3.055" transform="matrix(0.947, -0.321, 0.321, 0.947, 192.083, 242.022)" fill="#bcbcbc"/>
      <rect id="矩形_72" data-name="矩形 72" width="44.051" height="3.05" transform="translate(193.932 247.53) rotate(-18.735)" fill="#bcbcbc"/>
      <g id="组_16" data-name="组 16">
        <rect id="矩形_73" data-name="矩形 73" width="3.445" height="15.573" transform="matrix(0.947, -0.321, 0.321, 0.947, 130.715, 200.174)" fill="#4d4d4d"/>
        <rect id="矩形_74" data-name="矩形 74" width="3.446" height="26.495" transform="translate(132.852 187.908) rotate(-18.741)" fill="#e67345"/>
        <rect id="矩形_75" data-name="矩形 75" width="3.445" height="20.626" transform="translate(140.52 191.474) rotate(-18.726)" fill="#4d4d4d"/>
        <rect id="矩形_76" data-name="矩形 76" width="3.445" height="34.097" transform="translate(142.042 176.731) rotate(-18.726)" fill="#e67345"/>
        <rect id="矩形_77" data-name="矩形 77" width="3.447" height="26.713" transform="matrix(0.947, -0.321, 0.321, 0.947, 150.182, 181.732)" fill="#4d4d4d"/>
        <rect id="矩形_78" data-name="矩形 78" width="3.447" height="31.928" transform="translate(154.328 174.807) rotate(-18.737)" fill="#e67345"/>
        <rect id="矩形_79" data-name="矩形 79" width="3.445" height="33.664" transform="translate(159.577 171.175) rotate(-18.74)" fill="#4d4d4d"/>
        <rect id="矩形_80" data-name="矩形 80" width="3.446" height="39.748" transform="translate(163.444 163.421) rotate(-18.737)" fill="#e67345"/>
        <rect id="矩形_81" data-name="矩形 81" width="3.444" height="18.891" transform="translate(175.869 181.184) rotate(-18.738)" fill="#4d4d4d"/>
        <rect id="矩形_82" data-name="矩形 82" width="3.446" height="23.671" transform="translate(180.305 174.617) rotate(-18.737)" fill="#e67345"/>
        <rect id="矩形_83" data-name="矩形 83" width="3.444" height="11.067" transform="translate(190.107 184.561) rotate(-18.74)" fill="#4d4d4d"/>
        <rect id="矩形_84" data-name="矩形 84" width="3.447" height="15.842" transform="translate(194.388 178.048) rotate(-18.731)" fill="#e67345"/>
        <rect id="矩形_85" data-name="矩形 85" width="3.444" height="37.147" transform="matrix(0.947, -0.321, 0.321, 0.947, 193.421, 155.885)" fill="#4d4d4d"/>
        <rect id="矩形_86" data-name="矩形 86" width="3.446" height="40.188" transform="translate(198.255 151.016) rotate(-18.74)" fill="#e67345"/>
        <path id="路径_22" data-name="路径 22" d="M118.328,177.058l13.181,39.287,88.317-30.294" fill="none" stroke="#4d4d4d" stroke-miterlimit="10" stroke-width="1.332"/>
      </g>
    </g>
    <g id="组_19" data-name="组 19">
      <rect id="矩形_87" data-name="矩形 87" width="85.363" height="68.665" transform="translate(69.285 410.963) rotate(-76.131)" fill="#fff"/>
      <rect id="矩形_88" data-name="矩形 88" width="10.988" height="54.529" transform="matrix(0.24, -0.971, 0.971, 0.24, 91.81, 348.204)" fill="#8c8c8c"/>
      <g id="组_18" data-name="组 18">
        <rect id="矩形_89" data-name="矩形 89" width="6.369" height="20.628" transform="translate(77.655 406.168) rotate(-76.144)" fill="#8c8c8c"/>
        <rect id="矩形_90" data-name="矩形 90" width="5.89" height="9.366" transform="matrix(0.24, -0.971, 0.971, 0.24, 81.553, 390.205)" fill="#8c8c8c"/>
        <rect id="矩形_91" data-name="矩形 91" width="6.364" height="9.224" transform="translate(99.398 411.591) rotate(-76.097)" fill="#8c8c8c"/>
        <rect id="矩形_92" data-name="矩形 92" width="5.89" height="9.363" transform="translate(79.664 397.95) rotate(-76.144)" fill="#8c8c8c"/>
        <rect id="矩形_93" data-name="矩形 93" width="6.363" height="9.248" transform="matrix(0.24, -0.971, 0.971, 0.24, 110.194, 414.286)" fill="#8c8c8c"/>
        <rect id="矩形_94" data-name="矩形 94" width="5.892" height="9.361" transform="translate(126.801 393.295) rotate(-76.176)" fill="#8c8c8c"/>
        <rect id="矩形_95" data-name="矩形 95" width="5.891" height="9.365" transform="matrix(0.24, -0.971, 0.971, 0.24, 124.907, 401.035)" fill="#8c8c8c"/>
        <rect id="矩形_96" data-name="矩形 96" width="14.254" height="9.363" transform="translate(121.01 416.99) rotate(-76.112)" fill="#79c186"/>
        <rect id="矩形_97" data-name="矩形 97" width="5.894" height="9.364" transform="matrix(0.24, -0.971, 0.971, 0.24, 87.227, 366.974)" fill="#e67345"/>
        <rect id="矩形_98" data-name="矩形 98" width="6.368" height="9.248" transform="translate(121.656 367.358) rotate(-76.121)" fill="#4d4d4d"/>
        <rect id="矩形_99" data-name="矩形 99" width="6.368" height="9.23" transform="translate(110.858 364.66) rotate(-76.092)" fill="#4d4d4d"/>
        <rect id="矩形_100" data-name="矩形 100" width="6.366" height="9.243" transform="matrix(0.24, -0.971, 0.971, 0.24, 100.046, 361.959)" fill="#4d4d4d"/>
        <rect id="矩形_101" data-name="矩形 101" width="6.367" height="9.362" transform="translate(132.471 370.061) rotate(-76.127)" fill="#4d4d4d"/>
        <rect id="矩形_102" data-name="矩形 102" width="5.889" height="9.364" transform="translate(128.691 385.545) rotate(-76.116)" fill="#8c8c8c"/>
        <rect id="矩形_103" data-name="矩形 103" width="6.367" height="9.363" transform="matrix(0.239, -0.971, 0.971, 0.239, 89.119, 359.234)" fill="#4d4d4d"/>
        <rect id="矩形_104" data-name="矩形 104" width="5.886" height="9.361" transform="translate(85.337 374.71) rotate(-76.109)" fill="#8c8c8c"/>
        <rect id="矩形_105" data-name="矩形 105" width="5.894" height="9.364" transform="matrix(0.24, -0.971, 0.971, 0.24, 83.443, 382.466)" fill="#8c8c8c"/>
        <rect id="矩形_106" data-name="矩形 106" width="5.889" height="9.229" transform="matrix(0.24, -0.971, 0.971, 0.24, 103.293, 395.636)" fill="#8c8c8c"/>
        <rect id="矩形_107" data-name="矩形 107" width="5.895" height="9.241" transform="matrix(0.24, -0.971, 0.971, 0.24, 115.985, 390.595)" fill="#8c8c8c"/>
        <rect id="矩形_108" data-name="矩形 108" width="5.889" height="9.228" transform="matrix(0.24, -0.971, 0.971, 0.24, 108.971, 372.402)" fill="#4d4d4d"/>
        <rect id="矩形_109" data-name="矩形 109" width="5.889" height="9.249" transform="matrix(0.239, -0.971, 0.971, 0.239, 117.874, 382.847)" fill="#8c8c8c"/>
        <rect id="矩形_110" data-name="矩形 110" width="5.898" height="9.247" transform="translate(112.201 406.081) rotate(-76.11)" fill="#8c8c8c"/>
        <rect id="矩形_111" data-name="矩形 111" width="5.888" height="9.247" transform="translate(114.095 398.33) rotate(-76.12)" fill="#8c8c8c"/>
        <rect id="矩形_112" data-name="矩形 112" width="5.891" height="9.367" transform="matrix(0.241, -0.971, 0.971, 0.241, 130.579, 377.8)" fill="#4d4d4d"/>
        <rect id="矩形_113" data-name="矩形 113" width="5.894" height="9.247" transform="translate(90.586 400.682) rotate(-76.127)" fill="#8c8c8c"/>
        <rect id="矩形_114" data-name="矩形 114" width="5.89" height="9.247" transform="matrix(0.24, -0.971, 0.971, 0.24, 119.768, 375.099)" fill="#4d4d4d"/>
        <rect id="矩形_115" data-name="矩形 115" width="5.89" height="9.228" transform="translate(107.077 380.146) rotate(-76.115)" fill="#8c8c8c"/>
        <rect id="矩形_116" data-name="矩形 116" width="5.888" height="9.244" transform="translate(98.157 369.707) rotate(-76.172)" fill="#4d4d4d"/>
        <rect id="矩形_117" data-name="矩形 117" width="5.892" height="9.248" transform="translate(94.374 385.194) rotate(-76.155)" fill="#8c8c8c"/>
        <rect id="矩形_118" data-name="矩形 118" width="5.891" height="9.243" transform="matrix(0.24, -0.971, 0.971, 0.24, 92.481, 392.934)" fill="#8c8c8c"/>
        <rect id="矩形_119" data-name="矩形 119" width="5.893" height="9.245" transform="matrix(0.24, -0.971, 0.971, 0.24, 96.263, 377.446)" fill="#8c8c8c"/>
        <rect id="矩形_120" data-name="矩形 120" width="5.896" height="9.227" transform="translate(105.184 387.898) rotate(-76.125)" fill="#8c8c8c"/>
        <rect id="矩形_121" data-name="矩形 121" width="5.895" height="9.23" transform="translate(101.403 403.382) rotate(-76.119)" fill="#8c8c8c"/>
      </g>
    </g>
    <g id="组_22" data-name="组 22">
      <path id="路径_23" data-name="路径 23" d="M424.073,398.089a10.465,10.465,0,0,1-3.019,7.377,10.229,10.229,0,0,1-7.294,3.054H219.5a10.208,10.208,0,0,1-7.289-3.054,10.448,10.448,0,0,1-3.025-7.377V269.43a10.427,10.427,0,0,1,3.025-7.372A10.192,10.192,0,0,1,219.5,259H413.759a10.213,10.213,0,0,1,7.294,3.059,10.444,10.444,0,0,1,3.019,7.372Z" fill="#4d4d4d"/>
      <path id="路径_24" data-name="路径 24" d="M424.073,398.089a10.465,10.465,0,0,1-3.019,7.377,10.229,10.229,0,0,1-7.294,3.054H219.5a10.208,10.208,0,0,1-7.289-3.054,10.448,10.448,0,0,1-3.025-7.377V346.8l214.892-20.861Z" fill="#2b2b2b"/>
      <rect id="矩形_122" data-name="矩形 122" width="178.783" height="133.873" transform="translate(227.237 266.825)" fill="#fff"/>
      <path id="路径_25" data-name="路径 25" d="M414.766,319.477a3.337,3.337,0,0,0-3.316,3.354v21.857a3.316,3.316,0,1,0,6.632,0V322.831A3.337,3.337,0,0,0,414.766,319.477Z" fill="#bcbcbc"/>
      <g id="组_21" data-name="组 21">
        <rect id="矩形_123" data-name="矩形 123" width="62.201" height="4.421" transform="translate(246.56 301.048)" fill="#8c8c8c"/>
        <rect id="矩形_124" data-name="矩形 124" width="62.201" height="4.423" transform="translate(246.56 359.783)" fill="#8c8c8c"/>
        <rect id="矩形_125" data-name="矩形 125" width="76.191" height="4.418" transform="translate(246.56 308.629)" fill="#8c8c8c"/>
        <rect id="矩形_126" data-name="矩形 126" width="76.191" height="3.351" transform="translate(246.56 321.004)" fill="#bcbcbc"/>
        <rect id="矩形_127" data-name="矩形 127" width="76.191" height="3.351" transform="translate(246.56 327.125)" fill="#bcbcbc"/>
        <rect id="矩形_128" data-name="矩形 128" width="76.191" height="3.346" transform="translate(246.56 333.439)" fill="#bcbcbc"/>
        <rect id="矩形_129" data-name="矩形 129" width="76.191" height="3.351" transform="translate(246.56 339.629)" fill="#bcbcbc"/>
        <rect id="矩形_130" data-name="矩形 130" width="76.191" height="3.351" transform="translate(246.56 345.946)" fill="#bcbcbc"/>
        <rect id="矩形_131" data-name="矩形 131" width="76.191" height="3.346" transform="translate(246.56 370.705)" fill="#bcbcbc"/>
        <rect id="矩形_132" data-name="矩形 132" width="76.191" height="3.354" transform="translate(246.56 377.014)" fill="#bcbcbc"/>
        <rect id="矩形_133" data-name="矩形 133" width="76.191" height="3.348" transform="translate(246.56 383.208)" fill="#bcbcbc"/>
        <rect id="矩形_134" data-name="矩形 134" width="76.191" height="3.348" transform="translate(246.56 389.523)" fill="#bcbcbc"/>
        <rect id="矩形_135" data-name="矩形 135" width="41.39" height="4.423" transform="translate(335.992 359.783)" fill="#8c8c8c"/>
        <rect id="矩形_136" data-name="矩形 136" width="41.39" height="4.416" transform="translate(335.992 325.934)" fill="#8c8c8c"/>
        <rect id="矩形_137" data-name="矩形 137" width="34.416" height="4.418" transform="translate(335.992 274.709)" fill="#8c8c8c"/>
        <rect id="矩形_138" data-name="矩形 138" width="50.704" height="3.348" transform="translate(335.992 335.715)" fill="#bcbcbc"/>
        <rect id="矩形_139" data-name="矩形 139" width="50.704" height="3.346" transform="translate(335.992 341.907)" fill="#bcbcbc"/>
        <rect id="矩形_140" data-name="矩形 140" width="50.704" height="3.348" transform="translate(335.992 348.219)" fill="#bcbcbc"/>
        <rect id="矩形_141" data-name="矩形 141" width="50.704" height="3.351" transform="translate(335.992 289.865)" fill="#bcbcbc"/>
        <rect id="矩形_142" data-name="矩形 142" width="50.704" height="3.348" transform="translate(335.992 296.247)" fill="#bcbcbc"/>
        <rect id="矩形_143" data-name="矩形 143" width="50.704" height="3.354" transform="translate(335.992 283.548)" fill="#bcbcbc"/>
        <rect id="矩形_144" data-name="矩形 144" width="50.704" height="3.348" transform="translate(335.992 302.371)" fill="#bcbcbc"/>
        <rect id="矩形_145" data-name="矩形 145" width="50.704" height="3.343" transform="translate(335.992 308.689)" fill="#bcbcbc"/>
        <rect id="矩形_146" data-name="矩形 146" width="50.704" height="3.348" transform="translate(335.992 314.878)" fill="#bcbcbc"/>
        <rect id="矩形_147" data-name="矩形 147" width="50.704" height="3.346" transform="translate(335.992 370.705)" fill="#bcbcbc"/>
        <rect id="矩形_148" data-name="矩形 148" width="50.704" height="3.354" transform="translate(335.992 377.014)" fill="#bcbcbc"/>
        <rect id="矩形_149" data-name="矩形 149" width="50.704" height="3.348" transform="translate(335.992 383.208)" fill="#bcbcbc"/>
        <rect id="矩形_150" data-name="矩形 150" width="50.704" height="3.348" transform="translate(335.992 389.523)" fill="#bcbcbc"/>
        <g id="组_20" data-name="组 20">
          <path id="路径_26" data-name="路径 26" d="M246.818,294.518V274.986h3.793l7.9,13.039V274.986h3.623v19.532h-3.915l-7.787-12.739v12.739Z" fill="#e67345"/>
          <path id="路径_27" data-name="路径 27" d="M266.259,294.518V274.986h14.318v3.3h-10.42v4.334h9.694V285.9h-9.694v5.314h10.8v3.3Z" fill="#e67345"/>
          <path id="路径_28" data-name="路径 28" d="M286.992,294.518l-4.609-19.532h3.989l2.913,13.414,3.533-13.414h4.635l3.385,13.645,2.961-13.645h3.931l-4.693,19.532H298.9l-3.846-14.6-3.835,14.6Z" fill="#e67345"/>
          <path id="路径_29" data-name="路径 29" d="M308.732,288.159l3.793-.375a4.676,4.676,0,0,0,1.388,2.839,4.167,4.167,0,0,0,2.823.905,4.365,4.365,0,0,0,2.845-.8,2.417,2.417,0,0,0,.953-1.886,1.789,1.789,0,0,0-.4-1.179,3.258,3.258,0,0,0-1.414-.846c-.456-.161-1.489-.445-3.115-.857a10.478,10.478,0,0,1-4.4-1.929,5.176,5.176,0,0,1-.938-6.723,5.247,5.247,0,0,1,2.4-1.971,9.557,9.557,0,0,1,3.8-.68,8.1,8.1,0,0,1,5.477,1.613,5.716,5.716,0,0,1,1.928,4.3l-3.9.171a3.4,3.4,0,0,0-1.075-2.164,3.893,3.893,0,0,0-2.469-.654,4.43,4.43,0,0,0-2.67.7,1.458,1.458,0,0,0-.609,1.216,1.517,1.517,0,0,0,.577,1.189,10.126,10.126,0,0,0,3.581,1.3,18.8,18.8,0,0,1,4.211,1.4,5.451,5.451,0,0,1,2.135,1.988,5.841,5.841,0,0,1,.773,3.107,5.771,5.771,0,0,1-.927,3.139,5.474,5.474,0,0,1-2.606,2.18,10.712,10.712,0,0,1-4.2.718,8.32,8.32,0,0,1-5.631-1.714A7.493,7.493,0,0,1,308.732,288.159Z" fill="#e67345"/>
        </g>
      </g>
    </g>
    <g id="组_23" data-name="组 23">
      <rect id="矩形_151" data-name="矩形 151" width="67.475" height="7.39" transform="matrix(0.523, -0.852, 0.852, 0.523, 113.48, 318.046)" fill="#e2dcd0"/>
      <rect id="矩形_152" data-name="矩形 152" width="4.728" height="7.391" transform="matrix(0.523, -0.852, 0.852, 0.523, 113.478, 318.045)" fill="#fff"/>
      <path id="路径_30" data-name="路径 30" d="M158.21,250.952l-9.449,8.928,6.231,3.863Z" fill="#fff"/>
    </g>
    <g id="组_24" data-name="组 24">
      <rect id="矩形_153" data-name="矩形 153" width="7.308" height="88.13" transform="matrix(0.995, -0.096, 0.096, 0.995, 518.713, 314.347)" fill="#4d4d4d"/>
      <rect id="矩形_154" data-name="矩形 154" width="7.308" height="4.782" transform="matrix(0.995, -0.096, 0.096, 0.995, 526.614, 397.31)" fill="#fff"/>
      <path id="路径_31" data-name="路径 31" d="M520.945,301.469l-2.227,12.878,7.276-.709Z" fill="#fff"/>
    </g>
    <g id="组_25" data-name="组 25">
      <path id="路径_32" data-name="路径 32" d="M390.8,436.249V409.388a4.834,4.834,0,1,1,9.667,0v26.861a4.834,4.834,0,1,1-9.667,0Z" fill="#fff"/>
      <path id="路径_33" data-name="路径 33" d="M378.983,436.249V409.388a4.834,4.834,0,1,1,9.667,0v26.861a4.834,4.834,0,1,1-9.667,0Z" fill="#fff"/>
      <path id="路径_34" data-name="路径 34" d="M367.16,436.249V409.388a4.837,4.837,0,1,1,9.673,0v26.861a4.837,4.837,0,1,1-9.673,0Z" fill="#fff"/>
      <path id="路径_35" data-name="路径 35" d="M355.342,436.249v-46.2a4.834,4.834,0,1,1,9.667,0v46.2a4.834,4.834,0,1,1-9.667,0Z" fill="#fff"/>
      <path id="路径_36" data-name="路径 36" d="M338.91,438.381V423.365a4.837,4.837,0,1,1,9.673,0v15.016a4.837,4.837,0,1,1-9.673,0Z" fill="#fff"/>
      <path id="路径_37" data-name="路径 37" d="M355.5,456.927,340.33,441.59a4.925,4.925,0,0,1,0-6.916,4.793,4.793,0,0,1,6.839,0l15.176,15.343a4.938,4.938,0,0,1,0,6.911A4.8,4.8,0,0,1,355.5,456.927Z" fill="#fff"/>
      <path id="路径_38" data-name="路径 38" d="M361.783,458.529a6.386,6.386,0,0,1-4.556-1.913,6.541,6.541,0,0,1-1.886-4.607V420.477h45.127V452.01a6.541,6.541,0,0,1-1.886,4.607,6.386,6.386,0,0,1-4.556,1.913Z" fill="#fff"/>
      <rect id="矩形_155" data-name="矩形 155" width="28.472" height="23.864" transform="translate(363.673 455.74)" fill="#fff"/>
      <rect id="矩形_156" data-name="矩形 156" width="35.464" height="10.05" transform="translate(360.177 467.645)" fill="#4d4d4d"/>
      <rect id="矩形_157" data-name="矩形 157" width="42.714" height="66.366" transform="translate(356.547 476.47)" fill="#e2dcd0"/>
      <path id="路径_39" data-name="路径 39" d="M364.342,489.328a2.8,2.8,0,1,1,2.77-2.807A2.79,2.79,0,0,1,364.342,489.328Z" fill="#4d4d4d"/>
      <path id="路径_40" data-name="路径 40" d="M364.342,499.517a2.8,2.8,0,1,1,2.77-2.8A2.789,2.789,0,0,1,364.342,499.517Z" fill="#4d4d4d"/>
    </g>
  </g>
</svg>
